<?xml version="1.0" standalone="no"?>
<!DOCTYPE svg PUBLIC "-//W3C//DTD SVG 1.1//EN" "http://www.w3.org/Graphics/SVG/1.1/DTD/svg11.dtd" >
<svg xmlns="http://www.w3.org/2000/svg">
<metadata></metadata>
<defs>
<font id="futurafuturiscondextraboldcRg" horiz-adv-x="1069" >
<font-face units-per-em="2048" ascent="1587" descent="-461" />
<missing-glyph horiz-adv-x="477" />
<glyph horiz-adv-x="2048" />
<glyph horiz-adv-x="2048" />
<glyph unicode="&#xd;" horiz-adv-x="2048" />
<glyph unicode=" "  horiz-adv-x="477" />
<glyph unicode="&#x09;" horiz-adv-x="477" />
<glyph unicode="&#xa0;" horiz-adv-x="477" />
<glyph unicode="!" horiz-adv-x="645" d="M129 186q0 94 54.5 159t140.5 65q78 0 135 -59t57 -165q0 -97 -51.5 -159t-140.5 -62q-87 0 -141 63t-54 158zM145 487v947h357v-947h-357z" />
<glyph unicode="&#x22;" horiz-adv-x="677" d="M102 1434h195l-55 -416h-86zM383 1434h192l-55 -416h-86z" />
<glyph unicode="#" horiz-adv-x="1323" d="M180 338l25 205h190l45 348h-188l24 205h191l33 256h123l-33 -256h239l35 256h123l-35 -256h191l-27 -205h-188l-45 -348h186l-25 -205h-188l-33 -256h-123l33 256h-241l-33 -256h-123l33 256h-189zM518 543h242l45 348h-242z" />
<glyph unicode="$" horiz-adv-x="944" d="M14 977q0 98 21.5 179t55.5 134t80 92t90.5 59t92.5 29v222h193v-217q137 -12 248 -56v-360q-137 45 -252 45q-121 0 -121 -84q0 -25 8.5 -42t29.5 -29t41.5 -20t59 -21t66.5 -25q122 -51 191 -146t69 -264q0 -193 -91 -335.5t-249 -166.5v-207h-193v197q-162 3 -319 80 v395q198 -94 321 -94q67 0 94 26.5t27 65.5q0 26 -9 45.5t-35 36t-38.5 22t-50.5 20.5q-8 3 -12 5q-105 36 -156 70q-162 109 -162 344z" />
<glyph unicode="%" horiz-adv-x="1374" d="M43 1053q0 159 86 276t209 117q51 0 102.5 -26t95 -73.5t70.5 -124.5t27 -169t-27 -169t-70.5 -125t-95 -74t-102.5 -26q-123 0 -209 117.5t-86 276.5zM221 1053q0 -63 35 -109.5t82 -46.5q45 0 81 42t36 114t-36 113.5t-81 41.5q-47 0 -82 -46t-35 -109zM268 -43 l699 1491h139l-698 -1491h-140zM741 352q0 92 27 169t70.5 124.5t95 73.5t102.5 26q123 0 209 -117t86 -276t-86 -276t-209 -117q-51 0 -102.5 26t-95 73.5t-70.5 124.5t-27 169zM920 352q0 -72 35.5 -113.5t80.5 -41.5q47 0 82 46t35 109t-35 109.5t-82 46.5 q-45 0 -80.5 -42t-35.5 -114z" />
<glyph unicode="&#x26;" horiz-adv-x="1210" d="M72 362q0 146 71.5 250.5t180.5 161.5q-84 136 -84 283q0 77 21.5 146t63.5 124.5t110.5 88t154.5 32.5q157 0 246.5 -106.5t89.5 -282.5q0 -110 -42 -204t-153 -187l68 -99l174 203l184 -256l-166 -197l219 -319h-376l-76 106q-79 -82 -144.5 -113.5t-169.5 -31.5 q-84 0 -150.5 26t-107 66.5t-67.5 95t-37 107t-10 106.5zM395 375q0 -31 19 -56.5t57 -25.5q27 0 48 15t56 57l-98 157q-82 -55 -82 -147zM537 1038q0 -66 49 -135q82 67 82 144q0 40 -20 64t-50 24q-12 0 -24 -6t-24.5 -29.5t-12.5 -61.5z" />
<glyph unicode="'" horiz-adv-x="399" d="M102 1434h195l-55 -416h-86z" />
<glyph unicode="(" horiz-adv-x="509" d="M66 545q0 546 243 1003l172 -121q-184 -434 -184 -882q0 -449 184 -881l-172 -123q-243 457 -243 1004z" />
<glyph unicode=")" horiz-adv-x="509" d="M29 -336q91 199 136.5 433t45.5 448t-45.5 445.5t-136.5 436.5l172 121q243 -457 243 -1003q0 -547 -243 -1004z" />
<glyph unicode="*" horiz-adv-x="788" d="M57 950l187 111l-187 110l97 224l165 -160l-22 270h195l-23 -270l166 160l96 -224l-186 -110l186 -111l-96 -223l-166 160l23 -271h-195l22 271l-165 -160z" />
<glyph unicode="+" horiz-adv-x="1318" d="M100 602v215h451v453h217v-453h451v-215h-451v-450h-217v450h-451z" />
<glyph unicode="," horiz-adv-x="630" d="M57 -287l152 645h364l-278 -645h-238z" />
<glyph unicode="-" horiz-adv-x="620" d="M57 430v315h506v-315h-506z" />
<glyph unicode="." horiz-adv-x="649" d="M129 186q0 91 52.5 157.5t144.5 66.5q93 0 143.5 -65.5t50.5 -158.5q0 -36 -9.5 -72t-30 -71t-60.5 -56.5t-94 -21.5q-92 0 -144.5 64.5t-52.5 156.5z" />
<glyph unicode="/" horiz-adv-x="839" d="M43 -401l561 1906h193l-559 -1906h-195z" />
<glyph unicode="0" horiz-adv-x="1064" d="M66 711q0 115 12 213t32 169.5t49.5 129t60 95t68 65.5t69 43t67.5 23.5t59.5 10.5t48.5 2q34 0 65 -4t80.5 -21t90.5 -46t85.5 -85.5t75 -133t50.5 -195.5t20 -266q0 -145 -20 -262t-50.5 -192.5t-75 -131.5t-85.5 -84.5t-90.5 -45.5t-80.5 -20.5t-65 -3.5t-65 3.5 t-80.5 20.5t-90 45.5t-85 84.5t-75 131.5t-50.5 192.5t-20 262zM410 711q0 -47 1 -80.5t5 -76.5t12 -72t21 -55.5t34 -40t49 -13.5q22 0 40.5 9.5t31 29t21.5 40t14.5 51.5t9 54t4.5 57t1.5 51.5t0.5 45.5q0 41 -0.5 66t-3.5 73t-11.5 79t-21 64.5t-35 50.5t-51.5 17 q-22 0 -40 -8.5t-30 -27t-21.5 -38t-15 -50t-9 -54t-4.5 -60t-1.5 -57t-0.5 -55.5z" />
<glyph unicode="1" horiz-adv-x="1202" d="M309 1038v396h527v-1434h-365v1038h-162z" />
<glyph unicode="2" horiz-adv-x="1064" d="M29 0l534 803q41 61 41 129q0 52 -24 90.5t-74 38.5q-27 0 -47 -13t-30.5 -30.5t-16 -41.5t-6.5 -40.5t0 -32.5h-334q-2 48 2 97t17.5 105t34.5 106t56.5 96.5t81.5 80.5t111 54t143 20q205 0 326 -125.5t121 -349.5q0 -86 -16 -158t-55 -146t-83 -136.5t-121 -159.5h264 v-387h-925z" />
<glyph unicode="3" horiz-adv-x="1067" d="M59 502h353q-2 -22 1.5 -45.5t13.5 -49.5t34.5 -42.5t60.5 -16.5q42 0 67 32t25 97q0 119 -143 119h-41v278h33q29 0 44.5 2t38 12t33.5 35t11 66q0 36 -21.5 66t-58.5 30q-50 0 -68 -34t-16 -76h-340q0 71 14 138t47 131t81 112t121.5 77t164.5 29q87 0 163 -24.5 t136 -72t94.5 -124.5t34.5 -174q0 -140 -62.5 -214t-158.5 -91v-6q31 -6 60.5 -18t67 -38.5t65 -63.5t46.5 -98t19 -137q0 -202 -126.5 -316t-350.5 -114q-84 0 -152.5 24t-113.5 60.5t-79 88.5t-51.5 100t-29 103t-14 89t-3.5 66z" />
<glyph unicode="4" horiz-adv-x="1050" d="M29 272v367l442 795h406v-789h131v-373h-131v-272h-345v272h-503zM342 645h213v395z" />
<glyph unicode="5" horiz-adv-x="1073" d="M74 86l39 344h24q135 -100 258 -100q95 0 149 43t54 135q0 69 -50.5 117.5t-168.5 48.5q-109 0 -232 -43h-18l127 803h680v-373h-465l-16 -119q62 10 110 10q96 0 172 -30t121.5 -76t75 -108t40.5 -120t11 -118q0 -99 -30 -190.5t-88.5 -168.5t-158.5 -123.5t-227 -46.5 q-102 0 -196.5 24.5t-136.5 46.5t-74 44z" />
<glyph unicode="6" horiz-adv-x="1062" d="M59 522q0 203 91 381l276 531h416l-258 -482q58 9 116 -1.5t113 -44.5t97.5 -88.5t68 -142t25.5 -196.5q0 -230 -128.5 -369t-349.5 -139q-114 0 -204.5 44t-147 120t-86 174.5t-29.5 212.5zM422 481q0 -61 26.5 -106t81.5 -45q34 0 57.5 19t33 47.5t13 48.5t3.5 36 t-3 35t-12.5 48t-33 48t-58.5 19q-55 0 -81.5 -46t-26.5 -104z" />
<glyph unicode="7" horiz-adv-x="1054" d="M86 1047v387h969l-512 -1434h-420l403 1047h-440z" />
<glyph unicode="8" horiz-adv-x="1060" d="M57 393q0 72 18 132t45 98t63.5 67.5t66 44t61.5 23.5v4q-35 14 -66 36t-63 58.5t-50.5 94t-18.5 128.5q0 52 12 103t42.5 102.5t76.5 90t119.5 63t166.5 24.5q194 0 306 -104t112 -279q0 -71 -18.5 -128.5t-50 -94t-62.5 -58.5t-67 -36v-4q31 -10 60.5 -24t66.5 -43.5 t63.5 -67.5t45 -98t18.5 -132q0 -63 -13.5 -120t-48 -113.5t-86.5 -97t-136 -66t-190 -25.5q-119 0 -209 32t-138.5 78t-78.5 107.5t-38.5 109.5t-8.5 95zM424 449q0 -67 30 -102.5t76 -35.5q49 0 79 39.5t30 98.5q0 63 -33 99t-76 36q-45 0 -75.5 -35t-30.5 -100zM446 1010 q0 -47 23.5 -79t60.5 -32q38 0 61 31.5t23 79.5q0 36 -10.5 61t-26.5 34.5t-27 13t-20 3.5q-30 0 -57 -26t-27 -86z" />
<glyph unicode="9" horiz-adv-x="1062" d="M59 954q0 230 128.5 369t349.5 139q115 0 206 -43t147 -118t85 -171t29 -206q0 -112 -23.5 -209t-87.5 -213l-277 -502h-438l289 481q-78 -12 -150.5 13t-130 82.5t-92.5 155.5t-35 222zM426 954q0 -73 30 -112t76 -39q50 0 79.5 43t29.5 108q0 64 -29.5 107t-79.5 43 q-45 0 -75.5 -39t-30.5 -111z" />
<glyph unicode=":" horiz-adv-x="649" d="M129 186q0 95 54 159.5t143 64.5q81 0 137.5 -58.5t56.5 -165.5q0 -36 -9.5 -72t-30 -71t-60.5 -56.5t-94 -21.5q-91 0 -144 64.5t-53 156.5zM129 803q0 95 54 159t143 64q81 0 137.5 -58t56.5 -165q0 -62 -19.5 -108t-51 -69t-62.5 -33.5t-61 -10.5q-79 0 -138 57.5 t-59 163.5z" />
<glyph unicode=";" horiz-adv-x="641" d="M57 -287l152 645h364l-278 -645h-238zM197 803q0 94 54 158.5t140 64.5q78 0 135.5 -58.5t57.5 -164.5q0 -62 -19.5 -108t-51 -69t-62 -33.5t-60.5 -10.5q-78 0 -136 57t-58 164z" />
<glyph unicode="&#x3c;" horiz-adv-x="1024" d="M102 635v164l820 409v-204l-598 -287l598 -287v-205z" />
<glyph unicode="=" horiz-adv-x="1318" d="M100 430v215h1119v-215h-1119zM100 774v215h1119v-215h-1119z" />
<glyph unicode="&#x3e;" horiz-adv-x="1024" d="M102 225v205l598 287l-598 287v204l820 -409v-164z" />
<glyph unicode="?" horiz-adv-x="921" d="M57 989q3 61 12 117t36 125.5t67.5 119.5t112.5 84.5t166 34.5q106 0 187.5 -38.5t129.5 -103.5t72 -143t24 -165q0 -180 -74 -277t-184 -102v-154h-301v326h113q37 0 63 17.5t38 46t17 56.5t5 58q0 119 -78 119q-37 0 -53.5 -34.5t-16.5 -69.5v-17h-336zM262 186 q0 106 57.5 165t135.5 59q86 0 140 -65t54 -159q0 -95 -54 -158t-140 -63q-89 0 -141 62t-52 159z" />
<glyph unicode="@" horiz-adv-x="1878" d="M131 717q0 174 62.5 324.5t170 254t254 162t310.5 58.5q133 0 247 -27.5t196 -73.5t148 -109.5t108 -132t69.5 -143.5t39 -142t11.5 -130q0 -109 -43 -197t-113 -141t-153 -81t-170 -28q-129 0 -207 127q-52 -59 -116 -93t-126 -34q-45 0 -89 10t-87 34t-76 59.5 t-53 90.5t-20 122q0 93 37.5 180.5t99.5 152.5t146.5 104.5t174.5 39.5q72 0 109.5 -28t60.5 -77l19 86h215l-115 -524q-12 -59 12 -78.5t66 -19.5q121 0 192.5 85t71.5 210q0 142 -52.5 257.5t-142.5 190t-208 114.5t-252 40q-144 0 -265 -50.5t-200.5 -136t-123.5 -198 t-44 -238.5q0 -111 27 -207t74.5 -167t110.5 -126.5t136.5 -89.5t150 -51.5t154.5 -17.5q176 0 320 94l67 -143q-92 -59 -183.5 -85t-203.5 -26q-161 0 -296.5 43t-230.5 118t-161 176.5t-97.5 218t-31.5 243.5zM754 651q0 -55 24 -97t84 -42q44 0 81.5 19.5t60.5 48.5 t39.5 63.5t23 64.5t6.5 52q0 16 -1.5 31t-9 38.5t-20 40t-37 29t-57.5 12.5q-49 0 -88 -25t-61 -64.5t-33.5 -83.5t-11.5 -87z" />
<glyph unicode="A" horiz-adv-x="1208" d="M-14 0l383 1434h473l381 -1434h-441l-43 209h-270l-43 -209h-440zM530 567h148l-74 365z" />
<glyph unicode="B" horiz-adv-x="1185" d="M129 0v1434h586q94 0 165.5 -30.5t113.5 -83t62.5 -116t20.5 -135.5q0 -20 -3 -42.5t-16.5 -60.5t-36 -71t-66.5 -67.5t-103 -57.5l-2 -4q121 -26 199.5 -122.5t78.5 -244.5q0 -97 -32 -174t-87.5 -125.5t-128 -74t-155.5 -25.5h-596zM559 344h53q107 0 107 109 q0 106 -107 106h-53v-215zM559 889h41q94 0 94 100q0 101 -94 101h-41v-201z" />
<glyph unicode="C" horiz-adv-x="968" d="M66 717q0 118 24 229t73.5 207.5t119 168.5t166.5 113.5t210 41.5q68 0 119 -13.5t119 -44.5v-481q-93 80 -182 80q-111 0 -173.5 -86.5t-62.5 -229.5q0 -133 65.5 -209.5t170.5 -76.5q93 0 182 73v-477q-116 -55 -231 -55q-122 0 -224 44.5t-170 119t-115.5 173.5 t-69 205.5t-21.5 217.5z" />
<glyph unicode="D" horiz-adv-x="1269" d="M129 0v1434h461q91 0 169.5 -18t136 -48.5t104.5 -74.5t78.5 -90.5t55.5 -102.5t37 -105.5t20.5 -104.5t10 -94t2.5 -79q0 -65 -7.5 -129t-27 -136.5t-49.5 -136t-78.5 -122.5t-110.5 -101t-149.5 -67t-191.5 -25h-461zM559 416h35q12 0 21.5 0.5t32 6.5t40 16.5t39 33 t36 53t24.5 80t10 111.5q0 155 -58.5 228t-144.5 73h-35v-602z" />
<glyph unicode="E" horiz-adv-x="968" d="M129 0v1434h754v-416h-324v-121h291v-344h-291v-137h324v-416h-754z" />
<glyph unicode="F" horiz-adv-x="940" d="M129 0v1434h754v-416h-324v-172h291v-387h-291v-459h-430z" />
<glyph unicode="G" horiz-adv-x="1357" d="M66 707q0 118 21.5 227t70 209t120.5 173.5t179 117t239 43.5q213 0 355 -119.5t192 -306.5l-369 -93q-18 49 -62.5 76t-100.5 27q-62 0 -109 -30t-74 -81t-40 -112t-13 -129q0 -150 63.5 -250.5t170.5 -100.5q76 0 126 50q48 48 48 116v6h-226v330h635v-172 q0 -215 -66.5 -378.5t-201.5 -258t-324 -94.5q-194 0 -339 97t-220 266.5t-75 386.5z" />
<glyph unicode="H" horiz-adv-x="1333" d="M129 0v1434h430v-494h215v494h430v-1434h-430v524h-215v-524h-430z" />
<glyph unicode="I" horiz-adv-x="688" d="M129 0v1434h430v-1434h-430z" />
<glyph unicode="J" horiz-adv-x="804" d="M0 33v393q63 -53 145 -53q46 0 80.5 30t34.5 107v924h430v-938q0 -27 -0.5 -44t-4 -62t-10 -77.5t-20.5 -80.5t-34 -82.5t-52 -73t-72 -63t-97 -40.5t-124 -16q-167 0 -276 76z" />
<glyph unicode="K" horiz-adv-x="1265" d="M129 0v1434h430v-516l238 516h473l-367 -680l377 -754h-496l-225 545v-545h-430z" />
<glyph unicode="L" horiz-adv-x="888" d="M129 0v1434h430v-1018h301v-416h-731z" />
<glyph unicode="M" horiz-adv-x="1640" d="M29 0l151 1434h473l166 -818l168 818h473l152 -1434h-418l-49 745l-164 -745h-322l-163 745l-50 -745h-417z" />
<glyph unicode="N" horiz-adv-x="1355" d="M129 0v1434h403l285 -674v674h410v-1434h-400l-288 688v-688h-410z" />
<glyph unicode="O" horiz-adv-x="1376" d="M66 717q0 116 23.5 225.5t74.5 207t123 170t176 115t227 42.5t226.5 -42t175.5 -114.5t122 -170t73.5 -206.5t23.5 -227t-23.5 -227t-73.5 -206.5t-122 -170t-175.5 -114.5t-226.5 -42t-227 42.5t-176 115t-123 170t-74.5 207t-23.5 225.5zM477 717q0 -143 62 -222 t151 -79q86 0 147.5 78.5t61.5 222.5t-61.5 222.5t-147.5 78.5q-89 0 -151 -79t-62 -222z" />
<glyph unicode="P" horiz-adv-x="1175" d="M129 0v1434h520q109 0 194.5 -32.5t136 -82.5t83 -118t44 -131t11.5 -130t-12 -131t-44.5 -132t-83 -118t-135.5 -82.5t-194 -32.5h-90v-444h-430zM559 817h47q20 0 35 3.5t32 15t26.5 38t9.5 66.5t-10 66t-27.5 37t-32 14.5t-33.5 3.5h-47v-244z" />
<glyph unicode="Q" horiz-adv-x="1372" d="M66 717q0 117 23.5 226.5t74 206.5t122.5 169.5t175.5 115t226.5 42.5q126 0 230.5 -42t176 -114.5t121 -170t72.5 -206.5t23 -227q0 -150 -29.5 -265.5t-99.5 -226.5l147 -225l-256 -162l-112 182q-110 -63 -273 -63q-123 0 -226.5 42t-175.5 114.5t-122.5 169.5 t-74 207t-23.5 227zM477 717q0 -144 61.5 -222.5t149.5 -78.5q13 0 41 4l-65 100l229 113q6 43 6 84q0 143 -61.5 222t-149.5 79t-149.5 -79t-61.5 -222z" />
<glyph unicode="R" horiz-adv-x="1193" d="M129 0v1434h555q58 0 113.5 -11.5t116.5 -43.5t106 -82t74.5 -136t29.5 -196q0 -143 -49.5 -241t-173.5 -165l293 -559h-494l-141 444v-444h-430zM559 788h43q21 0 37 4t35.5 16.5t30 42t10.5 75.5q0 45 -10.5 74.5t-30 41.5t-35 15.5t-37.5 3.5h-43v-273z" />
<glyph unicode="S" horiz-adv-x="944" d="M14 977q0 232 123.5 366t327.5 134q186 0 330 -58v-360q-137 45 -252 45q-121 0 -121 -84q0 -25 8.5 -42t29.5 -29t41.5 -20t59 -21t66.5 -25q122 -51 191 -146t69 -264q0 -82 -17.5 -156t-55.5 -140.5t-93 -115t-136 -76.5t-179 -28q-198 0 -371 84v395q198 -94 321 -94 q67 0 94 26.5t27 65.5q0 26 -9 45.5t-35 36t-38.5 22t-50.5 20.5q-8 3 -12 5q-103 37 -152 69q-166 110 -166 345z" />
<glyph unicode="T" horiz-adv-x="911" d="M14 1018v416h883v-416h-227v-1018h-430v1018h-226z" />
<glyph unicode="U" horiz-adv-x="1327" d="M115 606v828h430v-846q0 -215 119 -215q118 0 118 215v846h430v-828q0 -125 -22.5 -226.5t-57 -167.5t-85 -115.5t-98.5 -75.5t-105.5 -41t-97 -19t-82.5 -4q-44 0 -84 4t-98 19t-105.5 41t-98 75.5t-85 115.5t-56.5 167.5t-22 226.5z" />
<glyph unicode="V" horiz-adv-x="1193" d="M-14 1434h434l178 -803l176 803h434l-387 -1434h-448z" />
<glyph unicode="W" horiz-adv-x="1757" d="M-14 1434h463l114 -703l139 703h353l139 -703l115 703h463l-320 -1434h-403l-170 803l-170 -803h-406z" />
<glyph unicode="X" horiz-adv-x="1216" d="M-14 0l383 754l-344 680h489l96 -273l95 273h471l-328 -660l383 -774h-483l-138 358l-151 -358h-473z" />
<glyph unicode="Y" d="M-14 1434h430l133 -422l125 422h409l-333 -838v-596h-431v596z" />
<glyph unicode="Z" d="M-14 0l473 1018h-398v416h1022l-462 -1018h419v-416h-1054z" />
<glyph unicode="[" horiz-adv-x="563" d="M115 -401v1906h420v-215h-162v-1476h162v-215h-420z" />
<glyph unicode="\" horiz-adv-x="808" d="M43 1505h162l561 -1935h-162z" />
<glyph unicode="]" horiz-adv-x="563" d="M29 -186h161v1476h-161v215h420v-1906h-420v215z" />
<glyph unicode="^" horiz-adv-x="931" d="M82 1024l240 410h288l240 -410h-199l-184 299l-184 -299h-201z" />
<glyph unicode="_" horiz-adv-x="768" d="M0 -225h768v-205h-768v205z" />
<glyph unicode="`" horiz-adv-x="512" d="M-57 1434h323l189 -330h-185z" />
<glyph unicode="a" horiz-adv-x="1089" d="M61 496q0 230 94.5 383t245.5 153q169 0 242 -149v106h332v-989h-332v102q-78 -145 -242 -145q-82 0 -148.5 47.5t-107 125t-62.5 172t-22 194.5zM395 496q0 -80 33.5 -137.5t95.5 -57.5t95.5 57.5t33.5 137.5q0 79 -33 135.5t-96 56.5t-96 -56.5t-33 -135.5z" />
<glyph unicode="b" horiz-adv-x="1089" d="M115 0v1505h344v-604q7 13 15.5 26t29 33t44 35t61.5 26t81 11q154 0 246 -149.5t92 -386.5q0 -245 -95.5 -392t-242.5 -147q-167 0 -241 145v-102h-334zM438 496q0 -79 32 -137t97 -58q62 0 95.5 58.5t33.5 136.5q0 77 -33 134.5t-96 57.5q-65 0 -97 -57.5t-32 -134.5z " />
<glyph unicode="c" horiz-adv-x="739" d="M61 496q0 104 23 197t70 170.5t127 123t184 45.5q127 0 217 -63v-342q-58 32 -145 32q-72 0 -107 -51t-35 -123q0 -62 36 -108.5t118 -46.5q79 0 133 30v-340q-84 -63 -217 -63q-189 0 -296.5 145.5t-107.5 393.5z" />
<glyph unicode="d" horiz-adv-x="1089" d="M61 496q0 107 20.5 201.5t60.5 170.5t106.5 120t152.5 44q159 0 230 -131v604h344v-1505h-332v102q-46 -80 -112 -112.5t-130 -32.5q-82 0 -147.5 42t-107 115.5t-63.5 171t-22 210.5zM395 496q0 -78 33.5 -136.5t97.5 -58.5t95.5 57.5t31.5 137.5q0 78 -31.5 135 t-95.5 57t-97.5 -58t-33.5 -134z" />
<glyph unicode="e" horiz-adv-x="978" d="M61 496q0 241 116 388.5t315 147.5q72 0 132.5 -19t102.5 -49.5t75 -74.5t53 -88.5t33.5 -97.5t19.5 -95.5t8 -88.5q1 -31 1 -52v-19q-1 -24 -2 -47h-536q0 -27 4.5 -55t16 -59.5t37 -51.5t61.5 -20q46 0 69 25.5t27 60.5h303q-21 -150 -132 -247t-284 -97 q-86 0 -156.5 29t-119 79.5t-81.5 119.5t-48 147t-15 164zM385 602h225q0 67 -27 119.5t-85 52.5q-33 0 -56.5 -19.5t-35 -50t-16 -55t-5.5 -47.5z" />
<glyph unicode="f" horiz-adv-x="610" d="M14 645v344h97v195q0 84 21 147.5t53 99.5t76.5 58.5t83.5 29.5t83 7q29 0 55.5 -2t45.5 -5t32.5 -5.5t23.5 -5.5t11 -3v-334q-45 11 -72 11q-23 0 -38 -12.5t-21.5 -35t-8 -40.5t-1.5 -43v-62h141v-344h-141v-645h-344v645h-97z" />
<glyph unicode="g" horiz-adv-x="1079" d="M61 535q0 220 92.5 358.5t252.5 138.5q162 0 225 -143v100h334v-960q0 -93 -22 -168.5t-55 -123.5t-80 -84t-89 -54t-91 -28.5t-77 -12.5t-55 -2q-119 0 -207.5 23t-173.5 81l133 258q84 -76 186 -76q40 0 72 11t52.5 27.5t35 40.5t21.5 44t11 45t4.5 36.5t0.5 25.5v34 q-37 -56 -86.5 -81t-122.5 -25q-62 0 -114 19.5t-88.5 52.5t-65 78t-45.5 93t-28.5 102t-15.5 99.5t-4 90.5zM395 502q0 -83 34.5 -135t90.5 -52q19 0 38.5 8t39.5 27t32.5 58.5t12.5 93.5q0 27 -5 55.5t-17 60t-38 51t-63 19.5q-56 0 -90.5 -51t-34.5 -135z" />
<glyph unicode="h" horiz-adv-x="1054" d="M115 0v1505h344v-631q29 66 86.5 112t142.5 46q42 0 75 -7t70.5 -32.5t62.5 -69t41.5 -121.5t16.5 -184v-618h-344v559q0 129 -65 129q-86 0 -86 -186v-502h-344z" />
<glyph unicode="i" horiz-adv-x="579" d="M86 1305q0 95 58.5 162t146.5 67q86 0 144.5 -67t58.5 -162t-59 -162.5t-144 -67.5q-88 0 -146.5 67.5t-58.5 162.5zM119 0v989h344v-989h-344z" />
<glyph unicode="j" horiz-adv-x="579" d="M86 1305q0 95 58.5 162t146.5 67q86 0 144.5 -67t58.5 -162t-59 -162.5t-144 -67.5q-88 0 -146.5 67.5t-58.5 162.5zM119 -401v1390h344v-1390h-344z" />
<glyph unicode="k" horiz-adv-x="1040" d="M115 0v1505h344v-895l176 379h387l-272 -465l311 -524h-404l-198 410v-410h-344z" />
<glyph unicode="l" horiz-adv-x="573" d="M115 0v1505h344v-1505h-344z" />
<glyph unicode="m" horiz-adv-x="1484" d="M115 0v989h323v-115q31 70 94 114t146 44q46 0 83.5 -16t60.5 -43t36 -50.5t21 -48.5q31 69 91.5 113.5t149.5 44.5q264 0 264 -434v-598h-323v559q0 129 -66 129q-84 0 -84 -186v-502h-323v559q0 129 -66 129q-84 0 -84 -186v-502h-323z" />
<glyph unicode="n" horiz-adv-x="1054" d="M115 0v989h344v-115q30 66 86.5 112t142.5 46q56 0 99.5 -17.5t72 -50.5t48 -73.5t29 -94.5t13.5 -105t4 -113v-578h-344v559q0 129 -65 129q-86 0 -86 -186v-502h-344z" />
<glyph unicode="o" horiz-adv-x="1019" d="M61 496q0 68 10 134t40.5 141.5t78 131t130.5 92.5t190 37q78 0 143 -19.5t110 -51t80.5 -76.5t56.5 -92.5t34.5 -101.5t18.5 -101t5 -94q0 -48 -5 -95t-18.5 -101.5t-34.5 -102t-56.5 -92.5t-80.5 -77t-110 -51.5t-143 -19.5q-107 0 -190 37t-130.5 93t-78 131.5 t-40.5 142t-10 135.5zM395 496q0 -38 9 -73t36.5 -64t69.5 -29q55 0 85 48t30 118q0 68 -29.5 115.5t-85.5 47.5q-43 0 -70.5 -29t-36 -63t-8.5 -71z" />
<glyph unicode="p" horiz-adv-x="1091" d="M115 -401v1390h334v-106q9 22 23 43t41 47.5t73 42.5t104 16q156 0 248 -151t92 -385q0 -100 -20.5 -193.5t-60 -172t-106.5 -126t-153 -47.5q-165 0 -231 129v-487h-344zM438 496q0 -99 36 -147t93 -48q65 0 97 57.5t32 137.5q0 87 -34.5 139.5t-94.5 52.5 q-58 0 -93.5 -48t-35.5 -144z" />
<glyph unicode="q" horiz-adv-x="1089" d="M61 496q0 131 28.5 235.5t77 169t108.5 98t126 33.5q25 0 50 -4.5t61.5 -18t71 -46t59.5 -80.5v106h332v-1390h-344v487q-77 -129 -230 -129q-86 0 -153 47.5t-106.5 126t-60 172t-20.5 193.5zM395 496q0 -77 33.5 -136t95.5 -59t95.5 59t33.5 136q0 76 -33 134t-96 58 t-96 -58t-33 -134z" />
<glyph unicode="r" horiz-adv-x="698" d="M115 0v989h334v-129q14 28 32.5 53.5t46.5 52.5q30 28 70 42q32 11 66 11q10 0 20 -1v-402q-34 29 -76 29q-17 0 -33.5 -4t-38.5 -19.5t-38 -41.5t-27.5 -74t-11.5 -113v-393h-344z" />
<glyph unicode="s" horiz-adv-x="784" d="M43 66l111 247q31 -30 73.5 -49.5t83.5 -19.5q9 0 18.5 1.5t25 6t25 17.5t9.5 32q0 32 -8 44.5t-22 16t-54.5 15t-83.5 31.5q-147 67 -147 270q0 46 7 89t29 93t57.5 86.5t98.5 61t146 24.5q157 0 299 -94l-105 -217q-75 53 -137 53q-45 0 -63.5 -22.5t-18.5 -51.5 q0 -17 6 -30t11 -20t22 -14t23 -8.5t29.5 -6t27.5 -5.5q62 -14 104.5 -43.5t64 -72t30 -86.5t8.5 -99q0 -69 -13.5 -124.5t-34 -92t-52 -63.5t-62 -41.5t-69 -23.5t-67.5 -11t-63 -2q-93 0 -166 24.5t-143 84.5z" />
<glyph unicode="t" horiz-adv-x="598" d="M14 645v344h97v301h344v-301h129v-344h-129v-645h-344v645h-97z" />
<glyph unicode="u" horiz-adv-x="1040" d="M100 457v532h344v-518q0 -33 1.5 -52t8.5 -42.5t23.5 -35t42.5 -11.5t42.5 11.5t23.5 35t8.5 42.5t1.5 52v518h344v-532q0 -31 -0.5 -48.5t-4 -60.5t-10 -72.5t-21 -73.5t-34.5 -75t-52.5 -65.5t-73.5 -55.5t-98.5 -35t-125.5 -14t-125.5 14t-98.5 35.5t-73.5 56 t-52.5 65.5t-34.5 75.5t-21 74t-10 72.5t-4 60t-0.5 47z" />
<glyph unicode="v" horiz-adv-x="798" d="M-20 989h323l96 -473l97 473h323l-280 -989h-279z" />
<glyph unicode="w" horiz-adv-x="1249" d="M-20 989h333l103 -444l98 444h221l99 -444l102 444h334l-297 -989h-256l-92 444l-93 -444h-253z" />
<glyph unicode="x" horiz-adv-x="940" d="M-14 0l301 524l-269 465h365l86 -235l86 235h367l-269 -465l301 -524h-356l-129 281l-129 -281h-354z" />
<glyph unicode="y" horiz-adv-x="948" d="M-20 989h387l157 -430l113 430h332l-451 -1390h-344l191 516z" />
<glyph unicode="z" horiz-adv-x="821" d="M0 0l309 645h-266v344h764l-313 -645h280v-344h-774z" />
<glyph unicode="{" horiz-adv-x="843" d="M205 401v205q17 1 33 7t37.5 24t37 46.5t26.5 80t11 119.5q0 39 -4 121q-2 39 -2 116q0 38 4 75t21.5 91t47 93t87 65.5t135.5 21.5v-163q-131 -31 -131 -195q0 -1 6 -160q4 -118 4 -178q0 -198 -170 -258v-16q57 -25 93.5 -55t52 -65.5t20 -63.5t4.5 -70q0 -61 -4 -183 q-1 -19 -2.5 -51.5t-2.5 -60t-1 -51.5q0 -160 131 -191v-164q-43 -3 -81.5 3.5t-79 28t-69 59t-47 103t-18.5 152.5q0 78 2 117q4 82 4 121q0 138 -40 203.5t-105 72.5z" />
<glyph unicode="|" horiz-adv-x="358" d="M102 -459v2157h154v-2157h-154z" />
<glyph unicode="}" horiz-adv-x="843" d="M205 -295q63 12 98 64.5t35 130.5q0 80 -6 159q-6 89 -6 179q0 197 172 258v16q-104 45 -138 101t-34 153q0 90 6 182q6 82 6 164q0 90 -39.5 135t-93.5 56v163q41 3 79 -3t79 -28.5t70.5 -59.5t49 -102.5t19.5 -152.5q0 -50 -3 -113t-3 -124q0 -258 143 -277v-205 q-143 -19 -143 -276q0 -71 3 -115.5t3 -122.5q0 -96 -24.5 -166.5t-57.5 -104.5t-78 -53t-76 -21.5t-61 -0.5v164z" />
<glyph unicode="~" horiz-adv-x="972" d="M102 594v205q31 45 78 73.5t92 28.5q60 0 168 -55l58 -29l51 -25.5t40 -19.5t35.5 -16t28 -10t27 -7t22.5 -2q89 0 168 103v-205q-31 -44 -75 -73.5t-93 -29.5q-14 0 -28.5 2t-33.5 8.5t-32.5 11.5t-39.5 17t-40 19l-49 24.5l-53 26.5q-110 55 -154 55q-48 0 -87.5 -25.5 t-82.5 -76.5z" />
<glyph unicode="&#xa9;" horiz-adv-x="1843" d="M102 717q0 166 65 317.5t175 261.5t262 175t318 65t317.5 -65t261.5 -175t175 -261.5t65 -317.5t-65 -317.5t-175 -261.5t-261.5 -175t-317.5 -65t-318 65t-262 175t-175 261.5t-65 317.5zM291 717q0 -129 50 -246t134.5 -201t201.5 -134t245 -50q127 0 244 50 t201.5 134.5t134.5 201.5t50 245t-50 245t-134.5 201.5t-201.5 134.5t-244 50q-128 0 -245 -50t-201.5 -134t-134.5 -201t-50 -246zM496 717q0 89 32 171t89 146t142 102t185 38q150 0 275 -76v-240q-106 80 -205 80q-43 0 -83 -12t-74.5 -37t-55.5 -69.5t-21 -102.5 q0 -107 62.5 -165t171.5 -58q105 0 205 73v-237q-75 -39 -134.5 -55.5t-140.5 -16.5q-195 0 -321.5 131.5t-126.5 327.5z" />
<glyph unicode="&#xab;" horiz-adv-x="856" d="M57 516l262 473l148 -121l-195 -352l195 -350l-148 -123zM391 516l262 473l146 -121l-193 -352l193 -350l-146 -123z" />
<glyph unicode="&#xad;" horiz-adv-x="620" d="M57 430v315h506v-315h-506z" />
<glyph unicode="&#xae;" horiz-adv-x="1855" d="M109 717q0 166 65 317.5t175 261.5t261.5 175t317.5 65t317.5 -65t261.5 -175t175 -261.5t65 -317.5t-65 -317.5t-175 -261.5t-261.5 -175t-317.5 -65t-317.5 65t-261.5 175t-175 261.5t-65 317.5zM297 717q0 -128 50 -245t134.5 -201.5t201.5 -134.5t245 -50t245 50 t201.5 134.5t134.5 201.5t50 245t-50 245t-134.5 201.5t-201.5 134.5t-245 50t-245 -50t-201.5 -134.5t-134.5 -201.5t-50 -245zM573 293v846h398q141 0 218 -75.5t77 -191.5q0 -58 -16.5 -101.5t-45 -69t-57 -39.5t-60.5 -21l207 -348h-276l-176 334h-11v-334h-258z M831 795h105q24 0 43.5 18t19.5 55q0 14 -2.5 24.5t-10 22t-25.5 17.5t-46 6h-84v-143z" />
<glyph unicode="&#xbb;" horiz-adv-x="856" d="M57 166l195 350l-195 352l146 121l264 -473l-264 -473zM391 166l193 350l-193 352l146 121l262 -473l-262 -473z" />
<glyph unicode="&#x401;" horiz-adv-x="968" d="M129 0v1434h754v-402h-324v-135h291v-344h-291v-152h324v-401h-754zM188 1663q0 75 41 116.5t101 41.5q40 0 69 -17.5t43 -44t20.5 -50.5t6.5 -46t-6.5 -46t-20.5 -50.5t-43 -44t-69 -17.5q-60 0 -101 41.5t-41 116.5zM555 1663q0 77 41 117.5t98 40.5q58 0 99 -40.5 t41 -117.5t-41 -117.5t-99 -40.5q-57 0 -98 40.5t-41 117.5z" />
<glyph unicode="&#x402;" horiz-adv-x="1306" d="M14 1032v402h1076v-402h-431v-291q108 136 263 136q106 0 181.5 -59t110.5 -155t35 -219q0 -92 -19.5 -165t-47 -119.5t-71 -80t-79 -49.5t-83 -24.5t-71.5 -10t-55 -1.5q-43 0 -86 6v287q40 -9 72.5 19.5t32.5 80.5q0 47 -20.5 74.5t-59.5 27.5q-53 0 -103 -92v-397 h-430v1032h-215z" />
<glyph unicode="&#x403;" horiz-adv-x="911" d="M129 0v1434h754v-416h-324v-1018h-430zM283 1505l231 316h344l-350 -316h-225z" />
<glyph unicode="&#x404;" horiz-adv-x="1030" d="M66 737q0 104 21.5 207.5t68.5 200t113 170t163 118t211 44.5q83 0 169.5 -21t145.5 -67v-402q-61 45 -109.5 66.5t-109.5 21.5q-89 0 -156.5 -51t-76.5 -143h356v-314h-375q5 -37 17.5 -69t36.5 -66t67.5 -54t102.5 -20q130 0 247 84v-405q-78 -44 -150 -62t-161 -18 q-117 0 -214 44t-164 118.5t-113.5 175t-68 212t-21.5 230.5z" />
<glyph unicode="&#x405;" horiz-adv-x="944" d="M14 977q0 232 123.5 366t327.5 134q186 0 330 -58v-360q-137 45 -252 45q-121 0 -121 -84q0 -25 8.5 -42t29.5 -29t41.5 -20t59 -21t66.5 -25q122 -51 191 -146t69 -264q0 -82 -17.5 -156t-55.5 -140.5t-93 -115t-136 -76.5t-179 -28q-198 0 -371 84v395q198 -94 321 -94 q67 0 94 26.5t27 65.5q0 26 -9 45.5t-35 36t-38.5 22t-50.5 20.5q-8 3 -12 5q-103 37 -152 69q-166 110 -166 345z" />
<glyph unicode="&#x406;" horiz-adv-x="688" d="M129 0v1434h430v-1434h-430z" />
<glyph unicode="&#x407;" horiz-adv-x="667" d="M43 1663q0 75 38.5 116.5t90.5 41.5t90.5 -41t38.5 -117t-38.5 -117t-90.5 -41t-90.5 41.5t-38.5 116.5zM119 0v1434h430v-1434h-430zM367 1663q0 76 38.5 117t90.5 41q55 0 92 -45t37 -113t-37 -113t-92 -45q-52 0 -90.5 41t-38.5 117z" />
<glyph unicode="&#x408;" horiz-adv-x="804" d="M0 33v393q63 -53 145 -53q46 0 80.5 30t34.5 107v924h430v-938q0 -27 -0.5 -44t-4 -62t-10 -77.5t-20.5 -80.5t-34 -82.5t-52 -73t-72 -63t-97 -40.5t-124 -16q-167 0 -276 76z" />
<glyph unicode="&#x409;" horiz-adv-x="1810" d="M0 0v401q35 -14 68 -14q30 0 53.5 9.5t39 23.5t26 40t16 48t8.5 60t3.5 63t0.5 69v734h989v-531h74q113 0 200 -28.5t137.5 -72.5t83 -105.5t43.5 -120t11 -123.5q0 -55 -8 -104.5t-26.5 -102.5t-53.5 -96t-84.5 -77.5t-123.5 -53.5t-167 -19h-516v1018h-172v-537 q0 -41 -0.5 -67.5t-5 -71.5t-12 -76t-23 -72t-37 -69t-55.5 -58.5t-76.5 -48.5t-101.5 -29.5t-129 -11.5q-63 0 -162 23zM1204 344h53q99 0 99 109q0 106 -99 106h-53v-215z" />
<glyph unicode="&#x40a;" horiz-adv-x="1810" d="M129 0v1434h430v-516h215v516h430v-516h74q113 0 199.5 -29t137.5 -74t83.5 -108.5t43.5 -124t11 -129.5q0 -55 -8 -104.5t-26.5 -102.5t-53.5 -96t-84.5 -77.5t-123.5 -53.5t-167 -19h-516v524h-215v-524h-430zM1204 344h53q15 0 26 1.5t25.5 8t23.5 18t15.5 34 t6.5 53.5q0 39 -8.5 63.5t-25 34.5t-30 13t-33.5 3h-53v-229z" />
<glyph unicode="&#x40b;" horiz-adv-x="1361" d="M14 1032v402h1055v-402h-410v-317q115 147 299 147q68 0 120.5 -21t95.5 -69.5t65.5 -137.5t22.5 -216v-418h-431v315q0 63 -13.5 97t-53.5 34q-60 0 -105 -104v-342h-430v1032h-215z" />
<glyph unicode="&#x40c;" horiz-adv-x="1265" d="M129 0v1434h430v-516l238 516h473l-367 -680l377 -754h-496l-225 545v-545h-430zM459 1505l231 316h344l-350 -316h-225z" />
<glyph unicode="&#x40e;" horiz-adv-x="1212" d="M0 1434h506l151 -439l123 439h447l-463 -1434h-453l148 395zM326 1821h229q8 -144 96 -144q11 0 22.5 3.5t29.5 15.5t30.5 44.5t14.5 80.5h227q-3 -30 -10.5 -61.5t-30 -80t-55.5 -84.5t-93 -63t-137 -27q-69 0 -124.5 21t-90 53.5t-58.5 76t-35 83.5t-15 82z" />
<glyph unicode="&#x40f;" horiz-adv-x="1343" d="M129 0v1434h430v-1018h225v1018h430v-1434h-350v-401h-385v401h-350z" />
<glyph unicode="&#x410;" horiz-adv-x="1208" d="M-14 0l383 1434h473l381 -1434h-441l-43 209h-270l-43 -209h-440zM530 567h148l-74 365z" />
<glyph unicode="&#x411;" horiz-adv-x="1185" d="M129 0v1434h893v-416h-463v-129h127q23 0 37 -0.5t50.5 -4t63 -10.5t66 -22t68 -36t60 -54.5t51.5 -76t33 -102t13 -130.5q0 -329 -245 -421q-86 -32 -213 -32h-541zM559 344h41q20 0 36 3.5t34 13.5t28.5 33.5t10.5 58.5q0 106 -109 106h-41v-215z" />
<glyph unicode="&#x412;" horiz-adv-x="1185" d="M129 0v1434h586q94 0 165.5 -30.5t113.5 -83t62.5 -116t20.5 -135.5q0 -20 -3 -42.5t-16.5 -60.5t-36 -71t-66.5 -67.5t-103 -57.5l-2 -4q121 -26 199.5 -122.5t78.5 -244.5q0 -97 -32 -174t-87.5 -125.5t-128 -74t-155.5 -25.5h-596zM559 344h53q107 0 107 109 q0 106 -107 106h-53v-215zM559 889h41q94 0 94 100q0 101 -94 101h-41v-201z" />
<glyph unicode="&#x413;" horiz-adv-x="911" d="M129 0v1434h754v-416h-324v-1018h-430z" />
<glyph unicode="&#x414;" horiz-adv-x="1304" d="M0 -287v703q44 3 79 23.5t57 48t38 71.5t23.5 79.5t12 87.5t5 80.5t0.5 72.5v555h946v-1018h129v-703h-364v287h-559v-287h-367zM504 416h227v602h-129v-203q0 -170 -25.5 -259.5t-72.5 -139.5z" />
<glyph unicode="&#x415;" horiz-adv-x="968" d="M129 0v1434h754v-416h-324v-121h291v-344h-291v-137h324v-416h-754z" />
<glyph unicode="&#x416;" horiz-adv-x="1800" d="M-14 0l387 745l-359 689h484l209 -523v523h387v-523l209 523h483l-359 -689l388 -745h-496l-225 545v-545h-387v545l-226 -545h-495z" />
<glyph unicode="&#x417;" horiz-adv-x="1030" d="M14 158l197 282q46 -48 102 -79t107 -31q38 0 64.5 12t38 31.5t16 36.5t4.5 36q0 58 -39 78.5t-107 20.5h-149v358h137q87 0 119.5 23t32.5 75q0 103 -125 103q-45 0 -103 -19t-104 -51l-176 299q132 78 234 111t226 33q111 0 201 -34t146 -91.5t86 -130t30 -152.5 q0 -126 -64.5 -208t-162.5 -116v-6q106 -24 177 -109.5t71 -232.5q0 -195 -129.5 -317.5t-333.5 -122.5q-44 0 -80 3t-90.5 14.5t-103 32t-108 59.5t-114.5 92z" />
<glyph unicode="&#x418;" horiz-adv-x="1355" d="M129 0v1434h410v-715l301 715h387v-1434h-410v688l-301 -688h-387z" />
<glyph unicode="&#x419;" horiz-adv-x="1355" d="M129 0v1434h410v-715l301 715h387v-1434h-410v688l-301 -688h-387zM369 1821h225q-2 -57 26.5 -100.5t71.5 -43.5q49 0 73.5 45t22.5 99h226q-2 -30 -9 -62t-29 -80.5t-54.5 -84.5t-92.5 -62.5t-137 -26.5q-69 0 -124.5 21t-90 53.5t-58.5 76.5t-35 84t-15 81z" />
<glyph unicode="&#x41a;" horiz-adv-x="1265" d="M129 0v1434h430v-516l238 516h473l-367 -680l377 -754h-496l-225 545v-545h-430z" />
<glyph unicode="&#x41b;" horiz-adv-x="1333" d="M0 0v401q35 -14 68 -14q30 0 53.5 9.5t39 23.5t26 40t16 48t8.5 60t3.5 63t0.5 69v734h989v-1434h-430v1018h-172v-537q0 -41 -0.5 -67.5t-5 -71.5t-12 -76t-23 -72t-37 -69t-55.5 -58.5t-76.5 -48.5t-101.5 -29.5t-129 -11.5q-63 0 -162 23z" />
<glyph unicode="&#x41c;" horiz-adv-x="1640" d="M29 0l151 1434h473l166 -818l168 818h473l152 -1434h-418l-49 745l-164 -745h-322l-163 745l-50 -745h-417z" />
<glyph unicode="&#x41d;" horiz-adv-x="1333" d="M129 0v1434h430v-494h215v494h430v-1434h-430v524h-215v-524h-430z" />
<glyph unicode="&#x41e;" horiz-adv-x="1376" d="M66 717q0 116 23.5 225.5t74.5 207t123 170t176 115t227 42.5t226.5 -42t175.5 -114.5t122 -170t73.5 -206.5t23.5 -227t-23.5 -227t-73.5 -206.5t-122 -170t-175.5 -114.5t-226.5 -42t-227 42.5t-176 115t-123 170t-74.5 207t-23.5 225.5zM477 717q0 -143 62 -222 t151 -79q86 0 147.5 78.5t61.5 222.5t-61.5 222.5t-147.5 78.5q-89 0 -151 -79t-62 -222z" />
<glyph unicode="&#x41f;" horiz-adv-x="1363" d="M129 0v1434h1106v-1434h-430v1018h-246v-1018h-430z" />
<glyph unicode="&#x420;" horiz-adv-x="1175" d="M129 0v1434h520q109 0 194.5 -32.5t136 -82.5t83 -118t44 -131t11.5 -130t-12 -131t-44.5 -132t-83 -118t-135.5 -82.5t-194 -32.5h-90v-444h-430zM559 817h47q20 0 35 3.5t32 15t26.5 38t9.5 66.5t-10 66t-27.5 37t-32 14.5t-33.5 3.5h-47v-244z" />
<glyph unicode="&#x421;" horiz-adv-x="968" d="M66 717q0 118 24 229t73.5 207.5t119 168.5t166.5 113.5t210 41.5q68 0 119 -13.5t119 -44.5v-481q-93 80 -182 80q-111 0 -173.5 -86.5t-62.5 -229.5q0 -133 65.5 -209.5t170.5 -76.5q93 0 182 73v-477q-116 -55 -231 -55q-122 0 -224 44.5t-170 119t-115.5 173.5 t-69 205.5t-21.5 217.5z" />
<glyph unicode="&#x422;" horiz-adv-x="911" d="M14 1018v416h883v-416h-227v-1018h-430v1018h-226z" />
<glyph unicode="&#x423;" horiz-adv-x="1212" d="M0 1434h506l151 -439l123 439h447l-463 -1434h-453l148 395z" />
<glyph unicode="&#x424;" horiz-adv-x="1613" d="M66 788q0 107 19 195.5t50.5 148.5t76.5 105.5t91 71.5t100 42t98 20.5t91 4.5v158h430v-158q47 0 91 -4.5t98 -20.5t100 -42t91 -71.5t76.5 -105.5t50.5 -148.5t19 -195.5t-19.5 -195.5t-50.5 -148t-76 -105t-91 -71.5t-100 -42t-98 -20.5t-91 -4.5v-201h-430v201 q-47 0 -91 4.5t-98 20.5t-100 42t-91 71.5t-76 105t-50.5 148t-19.5 195.5zM463 788q0 -97 45 -141.5t98 -44.5h29v373h-29q-62 0 -102.5 -47t-40.5 -140zM979 602h29q61 0 102 48t41 138q0 91 -41 139t-102 48h-29v-373z" />
<glyph unicode="&#x425;" horiz-adv-x="1216" d="M-14 0l383 754l-344 680h489l96 -273l95 273h471l-328 -660l383 -774h-483l-138 358l-151 -358h-473z" />
<glyph unicode="&#x426;" horiz-adv-x="1380" d="M129 0v1434h430v-1018h248v1018h430v-1018h129v-703h-367v287h-870z" />
<glyph unicode="&#x427;" horiz-adv-x="1247" d="M86 961v473h430v-326q0 -116 13 -155q19 -60 75 -60q39 0 84 10v531h430v-1434h-430v502q-108 -25 -201 -25q-64 0 -117.5 9.5t-92.5 24.5t-69.5 41.5t-50.5 51t-34 63t-21 67.5t-11 75t-4.5 75t-0.5 77z" />
<glyph unicode="&#x428;" horiz-adv-x="1828" d="M129 0v1434h410v-1018h172v1018h407v-1018h172v1018h410v-1434h-1571z" />
<glyph unicode="&#x429;" horiz-adv-x="1843" d="M129 0v1434h410v-1018h172v1018h407v-1018h172v1018h410v-1018h129v-703h-367v287h-1333z" />
<glyph unicode="&#x42a;" horiz-adv-x="1255" d="M14 1018v416h625v-531h94q111 0 196.5 -28.5t135 -72t81 -105.5t42 -120t10.5 -124q0 -55 -8 -104.5t-26.5 -102.5t-54 -96t-84.5 -77.5t-124 -53.5t-168 -19h-524v1018h-195zM639 344h51q19 0 33 3.5t30.5 13.5t25.5 33.5t9 58.5q0 64 -27.5 85t-70.5 21h-51v-215z" />
<glyph unicode="&#x42b;" horiz-adv-x="1720" d="M129 0v1434h430v-531h74q113 0 200 -28.5t137.5 -72.5t83 -105.5t43.5 -120t11 -123.5q0 -55 -8 -104.5t-26.5 -102.5t-53.5 -96t-84.5 -77.5t-123.5 -53.5t-167 -19h-516zM559 344h53q99 0 99 109q0 106 -99 106h-53v-215zM1161 0v1434h430v-1434h-430z" />
<glyph unicode="&#x42c;" horiz-adv-x="1165" d="M129 0v1434h430v-531h74q113 0 200 -28.5t137.5 -72.5t83 -105.5t43.5 -120t11 -123.5q0 -55 -8 -104.5t-26.5 -102.5t-53.5 -96t-84.5 -77.5t-123.5 -53.5t-167 -19h-516zM559 344h53q18 0 32.5 3.5t31 13.5t26 33.5t9.5 58.5q0 106 -99 106h-53v-215z" />
<glyph unicode="&#x42d;" horiz-adv-x="1013" d="M86 18v408q118 -68 217 -68q195 0 223 209h-331v314h315q-13 92 -80 143t-156 51q-88 0 -188 -63v397q137 68 285 68q97 0 181 -31t146 -85t110.5 -125.5t78.5 -155t45.5 -170t15.5 -173.5q0 -164 -39.5 -306t-112.5 -247.5t-183 -166t-244 -60.5q-140 0 -283 61z" />
<glyph unicode="&#x42e;" horiz-adv-x="1966" d="M129 0v1434h430v-514h133q9 74 32.5 147.5t71 149t111.5 132t160 92.5t211 36q126 0 230.5 -43t176 -115.5t121 -170.5t72.5 -206.5t23 -224.5q0 -117 -23 -225.5t-72.5 -206.5t-121.5 -170.5t-177 -115t-231 -42.5q-109 0 -203 33t-160 89t-115 130.5t-74.5 155.5 t-31.5 167h-133v-532h-430zM1067 717q0 -79 19.5 -139.5t52 -94.5t69 -50.5t74.5 -16.5q33 0 66.5 14.5t66.5 46.5t53.5 94t20.5 146t-20.5 146t-53.5 94t-66.5 46.5t-66.5 14.5q-38 0 -74.5 -16.5t-69 -50.5t-52 -94.5t-19.5 -139.5z" />
<glyph unicode="&#x42f;" horiz-adv-x="1187" d="M29 0l264 518q-30 13 -57 29.5t-62.5 51.5t-60.5 78t-42.5 111.5t-17.5 149.5q0 70 12.5 134.5t46.5 132.5t88 117t145 80.5t208 31.5h506v-1434h-430v401l-129 -401h-471zM463 926q0 -39 10.5 -67t24 -41t33.5 -20.5t30.5 -8.5t24.5 -1h43v273h-43q-17 0 -30.5 -1.5 t-32 -9.5t-30.5 -21.5t-21 -40t-9 -62.5z" />
<glyph unicode="&#x430;" horiz-adv-x="1089" d="M61 496q0 230 94.5 383t245.5 153q169 0 242 -149v106h332v-989h-332v102q-78 -145 -242 -145q-82 0 -148.5 47.5t-107 125t-62.5 172t-22 194.5zM395 496q0 -80 33.5 -137.5t95.5 -57.5t95.5 57.5t33.5 137.5q0 79 -33 135.5t-96 56.5t-96 -56.5t-33 -135.5z" />
<glyph unicode="&#x431;" horiz-adv-x="1026" d="M72 637q0 160 25 287.5t61.5 205t90.5 134.5t99.5 83.5t100.5 45.5q36 12 87.5 24.5t77.5 19.5t48.5 24t27.5 44h258q-4 -81 -24 -143t-40.5 -95t-63 -61t-60.5 -35t-65 -22q-7 -3 -11 -4q-44 -14 -72 -23.5t-65.5 -25.5t-60.5 -32t-49.5 -40.5t-42 -52.5t-28 -67 t-16.5 -85h6q43 76 106.5 109t151.5 33q72 0 131.5 -28t99.5 -74t67.5 -107.5t40 -126.5t12.5 -133q0 -81 -15.5 -156.5t-49 -145t-82.5 -121t-121.5 -82t-159.5 -30.5q-107 0 -189.5 39.5t-133.5 103.5t-84 154.5t-45.5 183.5t-12.5 199zM406 465q0 -93 33.5 -135.5 t78.5 -42.5t79 43t34 135q0 80 -30.5 130t-82.5 50t-82 -49.5t-30 -130.5z" />
<glyph unicode="&#x432;" horiz-adv-x="935" d="M115 0v989h475q14 0 25.5 -0.5t39.5 -5t49.5 -13t49 -26.5t45.5 -42.5t30.5 -64t12.5 -89.5q0 -88 -47 -148t-119 -84v-4q203 -40 203 -246q0 -27 -4.5 -55.5t-21.5 -68.5t-45 -69.5t-81.5 -51t-124.5 -21.5h-487zM438 229h33q74 0 74 86t-74 86h-33v-172zM438 588h25 q14 0 24.5 2.5t24 10t21.5 26.5t8 49q0 84 -78 84h-25v-172z" />
<glyph unicode="&#x433;" horiz-adv-x="677" d="M115 0v989h549v-344h-205v-645h-344z" />
<glyph unicode="&#x434;" horiz-adv-x="1046" d="M29 -287v602q35 -2 63.5 12t46 34.5t30.5 55t19 62t9 67.5t3.5 59.5t0.5 49.5v334h710v-674h107v-602h-258v287h-473v-287h-258zM397 315h191v359h-107v-125q0 -147 -84 -234z" />
<glyph unicode="&#x435;" horiz-adv-x="978" d="M61 496q0 241 116 388.5t315 147.5q72 0 132.5 -19t102.5 -49.5t75 -74.5t53 -88.5t33.5 -97.5t19.5 -95.5t8 -88.5t1 -70.5t-2 -47.5h-536q0 -27 4.5 -55t16 -59.5t37 -51.5t61.5 -20q46 0 69 25.5t27 60.5h303q-21 -150 -132 -247t-284 -97q-86 0 -156.5 29t-119 79.5 t-81.5 119.5t-48 147t-15 164zM385 602h225q0 67 -27 119.5t-85 52.5q-33 0 -56.5 -19.5t-35 -50t-16 -55t-5.5 -47.5z" />
<glyph unicode="&#x436;" horiz-adv-x="1400" d="M-20 0l280 516l-250 473h369l160 -407v407h323v-407l160 407h364l-245 -473l280 -516h-379l-180 424v-424h-323v424l-181 -424h-378z" />
<glyph unicode="&#x437;" horiz-adv-x="854" d="M43 76l115 266q123 -98 221 -98q30 0 50.5 9t29 23t11.5 25t3 21q0 65 -117 65h-106v229h121q102 0 102 64q0 80 -111 80q-86 0 -196 -66l-94 248q169 90 340 90q75 0 135.5 -18t98.5 -47t63 -67t35 -75.5t10 -76.5q0 -82 -41.5 -143.5t-112.5 -88.5v-4q81 -17 139 -79.5 t58 -164.5q0 -40 -10.5 -80t-38 -82.5t-69 -74.5t-110.5 -53t-155 -21q-202 0 -371 119z" />
<glyph unicode="&#x438;" d="M115 0v989h323v-473l201 473h315v-989h-323v487l-201 -487h-315z" />
<glyph unicode="&#x439;" d="M115 0v989h323v-473l201 473h315v-989h-323v487l-201 -487h-315zM254 1434h207q0 -19 3 -39t11.5 -46t29 -42.5t50.5 -16.5q49 0 72.5 45.5t25.5 98.5h207q-2 -28 -7.5 -59t-25.5 -80t-50.5 -85.5t-88.5 -64t-133 -27.5q-65 0 -117.5 21.5t-85 54.5t-55 76.5t-32 83.5 t-11.5 80z" />
<glyph unicode="&#x43a;" horiz-adv-x="1019" d="M115 0v989h344v-403l170 403h383l-262 -465l290 -524h-393l-188 438v-438h-344z" />
<glyph unicode="&#x43b;" d="M29 0v344q21 -8 47 -8q104 0 104 174v479h774v-989h-344v645h-129v-315q0 -90 -17.5 -156t-44.5 -103t-68.5 -59t-81 -28.5t-91.5 -6.5q-68 0 -149 23z" />
<glyph unicode="&#x43c;" horiz-adv-x="1296" d="M29 0l118 989h388l112 -530l113 530h389l119 -989h-322l-63 487l-107 -487h-258l-106 487l-62 -487h-321z" />
<glyph unicode="&#x43d;" horiz-adv-x="1056" d="M115 0v989h344v-315h139v315h344v-989h-344v358h-139v-358h-344z" />
<glyph unicode="&#x43e;" horiz-adv-x="1019" d="M61 496q0 68 10 134t40.5 141.5t78 131t130.5 92.5t190 37q78 0 143 -19.5t110 -51t80.5 -76.5t56.5 -92.5t34.5 -101.5t18.5 -101t5 -94q0 -48 -5 -95t-18.5 -101.5t-34.5 -102t-56.5 -92.5t-80.5 -77t-110 -51.5t-143 -19.5q-107 0 -190 37t-130.5 93t-78 131.5 t-40.5 142t-10 135.5zM395 496q0 -38 9 -73t36.5 -64t69.5 -29q55 0 85 48t30 118q0 68 -29.5 115.5t-85.5 47.5q-43 0 -70.5 -29t-36 -63t-8.5 -71z" />
<glyph unicode="&#x43f;" d="M115 0v989h839v-989h-344v674h-151v-674h-344z" />
<glyph unicode="&#x440;" horiz-adv-x="1091" d="M115 -401v1390h334v-106q9 22 23 43t41 47.5t73 42.5t104 16q156 0 248 -151t92 -385q0 -100 -20.5 -193.5t-60 -172t-106.5 -126t-153 -47.5q-165 0 -231 129v-487h-344zM438 496q0 -99 36 -147t93 -48q65 0 97 57.5t32 137.5q0 87 -34.5 139.5t-94.5 52.5 q-58 0 -93.5 -48t-35.5 -144z" />
<glyph unicode="&#x441;" horiz-adv-x="739" d="M61 496q0 104 23 197t70 170.5t127 123t184 45.5q127 0 217 -63v-342q-58 32 -145 32q-72 0 -107 -51t-35 -123q0 -62 36 -108.5t118 -46.5q79 0 133 30v-340q-84 -63 -217 -63q-189 0 -296.5 145.5t-107.5 393.5z" />
<glyph unicode="&#x442;" horiz-adv-x="704" d="M14 645v344h676v-344h-166v-645h-344v645h-166z" />
<glyph unicode="&#x443;" horiz-adv-x="948" d="M-20 989h387l157 -430l113 430h332l-451 -1390h-344l191 516z" />
<glyph unicode="&#x444;" horiz-adv-x="1327" d="M61 496q0 122 30.5 216t76 148t107 88t116.5 45.5t111 10.5v430h323v-430q56 1 111 -10.5t116.5 -45.5t107 -88t76 -148t30.5 -216t-30.5 -216.5t-76.5 -149t-107.5 -88.5t-116 -45.5t-110.5 -10.5v-387h-323v387q-56 -1 -110.5 10.5t-116 45.5t-107.5 88.5t-76.5 149 t-30.5 216.5zM385 487q0 -43 14 -74.5t38 -48t47.5 -24t50.5 -10.5v329q-59 -4 -104.5 -44.5t-45.5 -127.5zM793 330q16 1 32 4t38 13.5t38.5 26.5t28.5 45.5t12 67.5q0 80 -42 124.5t-107 47.5v-329z" />
<glyph unicode="&#x445;" horiz-adv-x="940" d="M-14 0l301 524l-269 465h365l86 -235l86 235h367l-269 -465l301 -524h-356l-129 281l-129 -281h-354z" />
<glyph unicode="&#x446;" d="M115 0v989h344v-674h127v674h344v-674h110v-602h-258v287h-667z" />
<glyph unicode="&#x447;" horiz-adv-x="1017" d="M86 567v422h344v-272q0 -41 5.5 -67t17 -37.5t22.5 -15t27 -3.5q28 0 57 14v381h344v-989h-344v293q-59 -14 -156 -14q-82 0 -142 18.5t-93 46t-52 68.5t-24.5 76t-5.5 79z" />
<glyph unicode="&#x448;" horiz-adv-x="1456" d="M115 0v989h323v-674h129v674h322v-674h129v674h323v-989h-1226z" />
<glyph unicode="&#x449;" horiz-adv-x="1476" d="M115 0v989h323v-674h129v674h322v-674h129v674h323v-674h107v-602h-258v287h-1075z" />
<glyph unicode="&#x44a;" horiz-adv-x="968" d="M14 645v344h473v-330h134q138 0 217.5 -91.5t79.5 -243.5q0 -145 -83 -234.5t-214 -89.5h-478v645h-129zM487 229h27q39 0 60.5 28t21.5 75q0 49 -22.5 73.5t-59.5 24.5h-27v-201z" />
<glyph unicode="&#x44b;" horiz-adv-x="1419" d="M115 0v989h344v-330h133q138 0 217.5 -91.5t79.5 -243.5q0 -145 -83 -234.5t-214 -89.5h-477zM459 229h26q39 0 60.5 28t21.5 75q0 49 -22.5 73.5t-59.5 24.5h-26v-201zM961 0v989h344v-989h-344z" />
<glyph unicode="&#x44c;" horiz-adv-x="940" d="M115 0v989h344v-330h133q138 0 217.5 -91.5t79.5 -243.5q0 -145 -83 -234.5t-214 -89.5h-477zM459 229h26q25 0 42.5 10.5t25.5 28t11 33t3 31.5q0 51 -23.5 74.5t-58.5 23.5h-26v-201z" />
<glyph unicode="&#x44d;" horiz-adv-x="819" d="M86 6v281q94 -43 178 -43q54 0 92.5 17t56.5 44.5t24 43.5t9 32h-280v229h274q-4 18 -13.5 37t-29 43.5t-57 39.5t-86.5 15q-75 0 -168 -49v279q107 57 209 57q117 0 207.5 -44t145 -119.5t82.5 -168.5t28 -198q0 -115 -28.5 -212.5t-83.5 -172.5t-143.5 -117.5 t-201.5 -42.5q-48 0 -108.5 12.5t-106.5 36.5z" />
<glyph unicode="&#x44e;" horiz-adv-x="1513" d="M115 0v989h323v-330h101q20 92 53.5 161t72 108.5t89 63.5t96 32t100.5 8q88 0 159.5 -24.5t117 -61.5t79.5 -90.5t51 -101.5t27.5 -104t12.5 -89t2 -65q0 -43 -3.5 -85t-15 -97.5t-31 -103t-54 -95.5t-80 -82t-114 -55t-151.5 -21q-51 0 -95.5 7t-97.5 31.5t-93 65 t-75 113t-52 170.5h-99v-344h-323zM834 496q0 -68 31 -117t85 -49q51 0 83 47t32 119q0 70 -31.5 116.5t-83.5 46.5q-54 0 -85 -48.5t-31 -114.5z" />
<glyph unicode="&#x44f;" horiz-adv-x="956" d="M57 0l168 319q-162 69 -162 316q0 69 13.5 125t33.5 92t50 63t57.5 40.5t61 21.5t55 10t45.5 2h463v-989h-322v293h-10l-119 -293h-334zM387 629q0 -99 96 -99h37v201h-37q-17 0 -30.5 -3t-30 -12t-26 -31t-9.5 -56z" />
<glyph unicode="&#x451;" horiz-adv-x="978" d="M61 496q0 241 116 388.5t315 147.5q72 0 132.5 -19t102.5 -49.5t75 -74.5t53 -88.5t33.5 -97.5t19.5 -95.5t8 -88.5t1 -70.5t-2 -47.5h-534q-5 -71 26 -128.5t91 -57.5q46 0 69 25.5t27 60.5h303q-21 -150 -132 -247t-284 -97q-86 0 -156.5 29t-119 79.5t-81.5 119.5 t-48 147t-15 164zM147 1305q0 91 44.5 145.5t95.5 54.5q54 0 97.5 -54.5t43.5 -145.5t-43.5 -146t-97.5 -55q-51 0 -95.5 55t-44.5 146zM385 602h225q0 67 -27 119.5t-85 52.5q-33 0 -56.5 -19.5t-35 -50t-16 -55t-5.5 -47.5zM557 1305q0 92 43.5 146t95.5 54q53 0 96.5 -54 t43.5 -146t-44 -146.5t-96 -54.5t-95.5 54.5t-43.5 146.5z" />
<glyph unicode="&#x452;" horiz-adv-x="1083" d="M14 1147v215h129v143h344v-143h291v-215h-291v-273q27 61 85.5 106.5t148.5 45.5q24 0 47.5 -4.5t52.5 -18t53.5 -35t49 -60t42 -88.5t28 -124t10.5 -164q0 -209 -51.5 -410.5t-161.5 -438.5l-256 147q73 189 106 338.5t33 335.5q0 184 -96 184q-15 0 -29 -7.5t-29 -26 t-24 -57.5t-9 -95v-502h-344v1147h-129z" />
<glyph unicode="&#x453;" horiz-adv-x="677" d="M115 0v989h549v-344h-205v-645h-344zM180 1104l189 330h323l-330 -330h-182z" />
<glyph unicode="&#x454;" horiz-adv-x="794" d="M86 502q0 105 29.5 199.5t84.5 169t142.5 118t196.5 43.5q104 0 194 -53v-289q-74 55 -153 55q-73 0 -119.5 -38t-57.5 -97h252v-229h-258q22 -137 172 -137q89 0 164 49v-289q-97 -47 -201 -47q-88 0 -162.5 31t-126 83t-87.5 122.5t-53 148.5t-17 160z" />
<glyph unicode="&#x455;" horiz-adv-x="784" d="M43 66l111 247q31 -30 73.5 -49.5t83.5 -19.5q9 0 18.5 1.5t25 6t25 17.5t9.5 32q0 32 -8 44.5t-22 16t-54.5 15t-83.5 31.5q-147 67 -147 270q0 46 7 89t29 93t57.5 86.5t98.5 61t146 24.5q157 0 299 -94l-105 -217q-75 53 -137 53q-45 0 -63.5 -22.5t-18.5 -51.5 q0 -17 6 -30t11 -20t22 -14t23 -8.5t29.5 -6t27.5 -5.5q62 -14 104.5 -43.5t64 -72t30 -86.5t8.5 -99q0 -69 -13.5 -124.5t-34 -92t-52 -63.5t-62 -41.5t-69 -23.5t-67.5 -11t-63 -2q-93 0 -166 24.5t-143 84.5z" />
<glyph unicode="&#x456;" horiz-adv-x="579" d="M86 1305q0 95 58.5 162t146.5 67q86 0 144.5 -67t58.5 -162t-59 -162.5t-144 -67.5q-88 0 -146.5 67.5t-58.5 162.5zM119 0v989h344v-989h-344z" />
<glyph unicode="&#x457;" horiz-adv-x="616" d="M29 1305q0 92 40 146t89 54q51 0 90 -54t39 -146t-39 -146.5t-90 -54.5q-49 0 -89 54.5t-40 146.5zM137 0v989h344v-989h-344zM330 1305q0 92 40 146t89 54q51 0 90 -54t39 -146t-39 -146.5t-90 -54.5q-49 0 -89 54.5t-40 146.5z" />
<glyph unicode="&#x458;" horiz-adv-x="579" d="M86 1305q0 95 58.5 162t146.5 67q86 0 144.5 -67t58.5 -162t-59 -162.5t-144 -67.5q-88 0 -146.5 67.5t-58.5 162.5zM119 -401v1390h344v-1390h-344z" />
<glyph unicode="&#x459;" horiz-adv-x="1435" d="M29 0v344q21 -8 47 -8q104 0 104 174v479h774v-330h133q78 0 137.5 -29.5t93 -78.5t50 -106.5t16.5 -120.5q0 -138 -79 -231t-218 -93h-477v645h-129v-315q0 -90 -17.5 -156t-44.5 -103t-68.5 -59t-81 -28.5t-91.5 -6.5q-68 0 -149 23zM954 229h25q39 0 60.5 28t21.5 75 q0 33 -10 55t-26.5 30t-26 10.5t-19.5 2.5h-25v-201z" />
<glyph unicode="&#x45a;" horiz-adv-x="1423" d="M115 0v989h344v-330h139v330h344v-330h133q138 0 217.5 -91.5t79.5 -243.5q0 -145 -83 -234.5t-214 -89.5h-477v344h-139v-344h-344zM942 229h27q25 0 42.5 10.5t25.5 28t11 33t3 31.5q0 44 -21.5 71t-60.5 27h-27v-201z" />
<glyph unicode="&#x45b;" horiz-adv-x="1083" d="M14 1147v215h129v143h344v-143h291v-215h-291v-273q30 66 87 112t143 46q56 0 99.5 -17.5t72 -50.5t48 -73.5t29 -94.5t13.5 -105t4 -113v-578h-344v559q0 129 -66 129q-86 0 -86 -186v-502h-344v1147h-129z" />
<glyph unicode="&#x45c;" horiz-adv-x="1019" d="M115 0v989h344v-403l170 403h383l-262 -465l290 -524h-393l-188 438v-438h-344zM356 1104l189 330h323l-329 -330h-183z" />
<glyph unicode="&#x45e;" horiz-adv-x="948" d="M-20 989h387l157 -430l113 430h332l-451 -1390h-344l191 516zM213 1434h207q-2 -50 22.5 -97t75.5 -47q30 0 50.5 16.5t29 42.5t11.5 46t3 39h207q-8 -132 -88 -224t-215 -92t-215 92t-88 224z" />
<glyph unicode="&#x45f;" d="M115 0v989h344v-674h151v674h344v-989h-290v-287h-258v287h-291z" />
<glyph unicode="&#x490;" horiz-adv-x="954" d="M129 0v1434h453v286h344v-688h-367v-1032h-430z" />
<glyph unicode="&#x491;" horiz-adv-x="698" d="M115 0v989h366v258h203v-602h-225v-645h-344z" />
<glyph unicode="&#x2000;" horiz-adv-x="910" />
<glyph unicode="&#x2001;" horiz-adv-x="1821" />
<glyph unicode="&#x2002;" horiz-adv-x="910" />
<glyph unicode="&#x2003;" horiz-adv-x="1821" />
<glyph unicode="&#x2004;" horiz-adv-x="607" />
<glyph unicode="&#x2005;" horiz-adv-x="455" />
<glyph unicode="&#x2006;" horiz-adv-x="303" />
<glyph unicode="&#x2007;" horiz-adv-x="303" />
<glyph unicode="&#x2008;" horiz-adv-x="227" />
<glyph unicode="&#x2009;" horiz-adv-x="364" />
<glyph unicode="&#x200a;" horiz-adv-x="101" />
<glyph unicode="&#x2010;" horiz-adv-x="620" d="M57 430v315h506v-315h-506z" />
<glyph unicode="&#x2011;" horiz-adv-x="620" d="M57 430v315h506v-315h-506z" />
<glyph unicode="&#x2012;" horiz-adv-x="620" d="M57 430v315h506v-315h-506z" />
<glyph unicode="&#x2013;" horiz-adv-x="1318" d="M100 602v215h1119v-215h-1119z" />
<glyph unicode="&#x2014;" horiz-adv-x="1222" d="M57 473v244h1108v-244h-1108z" />
<glyph unicode="&#x2018;" horiz-adv-x="630" d="M57 860l281 645h235l-149 -645h-367z" />
<glyph unicode="&#x2019;" horiz-adv-x="630" d="M57 860l152 645h364l-278 -645h-238z" />
<glyph unicode="&#x201a;" horiz-adv-x="630" d="M57 -287l152 645h364l-278 -645h-238z" />
<glyph unicode="&#x201c;" horiz-adv-x="1040" d="M57 860l258 645h238l-152 -645h-344zM487 860l258 645h238l-152 -645h-344z" />
<glyph unicode="&#x201d;" horiz-adv-x="1040" d="M57 860l152 645h344l-258 -645h-238zM487 860l152 645h344l-258 -645h-238z" />
<glyph unicode="&#x201e;" horiz-adv-x="1040" d="M57 -287l152 645h344l-258 -645h-238zM487 -287l152 645h344l-258 -645h-238z" />
<glyph unicode="&#x2022;" horiz-adv-x="942" d="M102 717q0 154 107.5 261t261.5 107t261.5 -107t107.5 -261t-107.5 -261.5t-261.5 -107.5t-261.5 107.5t-107.5 261.5z" />
<glyph unicode="&#x2026;" horiz-adv-x="1585" d="M129 172q0 93 49 151t109 58q58 0 106.5 -57t48.5 -152t-48.5 -152t-106.5 -57q-60 0 -109 58t-49 151zM637 172q0 95 49 152t107 57q64 0 110.5 -62.5t46.5 -146.5t-46.5 -146.5t-110.5 -62.5q-58 0 -107 57t-49 152zM1143 172q0 93 48.5 151t108.5 58q58 0 107 -57 t49 -152t-49 -152t-107 -57q-60 0 -108.5 58t-48.5 151z" />
<glyph unicode="&#x202f;" horiz-adv-x="364" />
<glyph unicode="&#x2039;" horiz-adv-x="524" d="M57 516l262 473l148 -121l-195 -352l195 -350l-148 -123z" />
<glyph unicode="&#x203a;" horiz-adv-x="524" d="M57 166l195 350l-195 352l146 121l264 -473l-264 -473z" />
<glyph unicode="&#x205f;" horiz-adv-x="455" />
<glyph unicode="&#x20ac;" horiz-adv-x="1064" d="M27 465l59 182h74q-2 16 -2 58q0 33 2 51h-133l59 182h86q37 254 161 389t359 135q97 0 171 -21.5t108 -47.5v-312q-59 84 -205 84q-97 0 -149.5 -57t-67.5 -170h362l-59 -182h-317q-3 -18 -3 -49q0 -36 3 -60h282l-59 -182h-203q15 -101 66 -148t145 -47q65 0 120.5 20 t84.5 50v-303q-81 -64 -279 -64q-230 0 -356 122t-162 370h-147z" />
<glyph unicode="&#x2122;" horiz-adv-x="1267" d="M102 1249v185h400v-185h-107v-389h-184v389h-109zM518 860l68 574h192l64 -310l63 310h193l67 -574h-155l-37 311l-68 -311h-129l-67 311l-35 -311h-156z" />
<glyph unicode="&#xe000;" horiz-adv-x="993" d="M0 0v993h993v-993h-993z" />
</font>
</defs>
</svg>
